<?xml version="1.0" encoding="UTF-8"?>
<!DOCTYPE svg PUBLIC "-//W3C//DTD SVG 1.1//EN" "http://www.w3.org/Graphics/SVG/1.1/DTD/svg11.dtd">
<!-- Creator: CorelDRAW 2019 (64 Bit) -->
<svg xmlns="http://www.w3.org/2000/svg" xml:space="preserve" width="42cm" height="38cm" version="1.1" style="shape-rendering:geometricPrecision; text-rendering:geometricPrecision; image-rendering:optimizeQuality; fill-rule:evenodd; clip-rule:evenodd"
viewBox="0 0 42000 38000"
 xmlns:xlink="http://www.w3.org/1999/xlink"
 xmlns:xodm="http://www.corel.com/coreldraw/odm/2003">
 <defs>
  <style type="text/css">
   <![CDATA[
    .fil30 {fill:#E6E7E8}
    .fil33 {fill:#000002;fill-rule:nonzero}
    .fil31 {fill:#106B31;fill-rule:nonzero}
    .fil35 {fill:#127837;fill-rule:nonzero}
    .fil36 {fill:#169143;fill-rule:nonzero}
    .fil34 {fill:#20201E;fill-rule:nonzero}
    .fil37 {fill:#212222;fill-rule:nonzero}
    .fil23 {fill:#262029;fill-rule:nonzero}
    .fil6 {fill:#2C3C51;fill-rule:nonzero}
    .fil17 {fill:#2F2F2F;fill-rule:nonzero}
    .fil21 {fill:#2F3C4D;fill-rule:nonzero}
    .fil5 {fill:#3A4B64;fill-rule:nonzero}
    .fil22 {fill:#3E3345;fill-rule:nonzero}
    .fil9 {fill:#41444D;fill-rule:nonzero}
    .fil4 {fill:#453026;fill-rule:nonzero}
    .fil18 {fill:#453924;fill-rule:nonzero}
    .fil38 {fill:#4C5155;fill-rule:nonzero}
    .fil40 {fill:#51B2B4;fill-rule:nonzero}
    .fil13 {fill:#58392F;fill-rule:nonzero}
    .fil32 {fill:#693C3E;fill-rule:nonzero}
    .fil41 {fill:#69B9BD;fill-rule:nonzero}
    .fil39 {fill:#6B4334;fill-rule:nonzero}
    .fil42 {fill:#6EBCEE;fill-rule:nonzero}
    .fil14 {fill:#704736;fill-rule:nonzero}
    .fil15 {fill:#7F503D;fill-rule:nonzero}
    .fil8 {fill:#A94F46;fill-rule:nonzero}
    .fil20 {fill:#AA4E4E;fill-rule:nonzero}
    .fil24 {fill:#B65B59;fill-rule:nonzero}
    .fil26 {fill:#B76E6D;fill-rule:nonzero}
    .fil27 {fill:#BE7848;fill-rule:nonzero}
    .fil2 {fill:#C2C653;fill-rule:nonzero}
    .fil16 {fill:#D4584B;fill-rule:nonzero}
    .fil7 {fill:#D6D45B;fill-rule:nonzero}
    .fil28 {fill:#D97343;fill-rule:nonzero}
    .fil3 {fill:#DDBB98;fill-rule:nonzero}
    .fil12 {fill:#DEDC56;fill-rule:nonzero}
    .fil19 {fill:#E19044;fill-rule:nonzero}
    .fil10 {fill:#E29280;fill-rule:nonzero}
    .fil0 {fill:#E4E4E4;fill-rule:nonzero}
    .fil25 {fill:#E9AD90;fill-rule:nonzero}
    .fil29 {fill:#EAAC68;fill-rule:nonzero}
    .fil1 {fill:#EEBF9B;fill-rule:nonzero}
    .fil11 {fill:white;fill-rule:nonzero}
   ]]>
  </style>
 </defs>
 <g id="Camada_x0020_1">
  <metadata id="CorelCorpID_0Corel-Layer"/>
  <path class="fil0" d="M19411.44 7934.96l384.3 850.55c0,0 350,-43.96 336.31,149.59 -13.72,193.56 -343.14,159.37 -398.03,70.22 0,0 13.73,267.44 -164.73,219.81 -178.41,-48.24 -6.84,-350.47 -6.84,-350.47l-247.05 -644.79 96.04 -294.91z"/>
  <path class="fil1" d="M18602.17 8288.5c27.66,87.31 537.38,-484.8 603.44,-508.01 -65.14,23.21 -544.09,523.27 -501.77,636.22 49.95,134.35 448.54,-357.18 543.49,-454.88 -340.1,349.25 -37.01,594.71 97.01,666.16 138.43,73.26 143.19,-58.62 143.19,-58.62 -393.59,-256.45 -64.11,-525.11 170.84,-437.18 234.96,87.92 142.76,359.02 47.37,352.92 -95.36,-6.11 -200.39,70.83 -123.02,120.28 77.3,50.07 232.39,69.61 346.14,-123.34 128.77,-219.2 -73.77,-461.6 -73.77,-461.6 0,0 -4.88,-154.47 325.63,-252.78 -97.27,-141.65 -214.86,-408.49 -314.81,-548.3 -270.49,139.81 -454.71,266.21 -454.71,266.21 -432.72,161.8 -850.67,672.26 -809.03,802.92z"/>
  <path class="fil2" d="M24781.41 5688.62c0,0 -2264.59,586.78 -2738.17,678.98 -473.51,92.8 -2233.75,803.53 -2233.75,803.53 0,0 82.37,580.67 432.35,763.83 0,0 4148.44,-754.07 4807.2,-990.35 0,0 51.28,-1153.4 -267.63,-1255.99z"/>
  <path class="fil3" d="M30709.76 10724.06c0,0 945.18,806.15 884.12,948.48 -61.06,142.32 -475.64,-251.14 -475.64,-251.14 0,0 460.37,390.78 371.24,491.4 -89.76,100.63 -537.32,-341.38 -537.32,-341.38 0,0 428.02,402.98 322.39,521.82 -105.63,118.82 -588,-444.64 -588,-444.64 0,0 -74.48,439.98 -163.02,404.69 -89.14,-35.22 -296.13,-941.58 -296.13,-941.58l482.36 -387.65z"/>
  <path class="fil4" d="M27176.32 3422.14c0,0 1431.81,776.05 918.3,2784.27 0,0 -1341.45,-569.07 -1233.38,-2594.37l315.08 -189.9z"/>
  <path class="fil1" d="M28140.42 21164.26c-271.7,-66.69 -390.16,-494.82 -441.46,-871.61 -43.34,-316.96 -39.68,-597.71 -39.68,-597.71l-1237.66 -7573.51 1587.52 -440.22 232.03 7873.67c0,0 73.88,322.69 117.85,680.06 58,469.6 64.71,998.55 -218.6,929.32z"/>
  <path class="fil1" d="M26421.62 12121.43l-111.74 7780.8 -4.27 309.09c-1.21,82.37 -68.39,148.48 -150.81,148.48l-2025.24 0c-92.32,0 -141.12,-111.24 -77.13,-177.85 117.54,-122.3 384.13,-282.83 987.45,-398.85 176.46,-34.06 381.61,-63.98 620.35,-88.16l-842.18 -7859.43 1603.57 285.92z"/>
  <path class="fil5" d="M28140.42 21164.26c-271.7,-66.69 -390.16,-494.82 -441.46,-871.61 118.46,129.06 272.33,268.17 384.67,268.17 98.92,0 198.45,-159.01 275.39,-325.88 58,469.6 64.71,998.55 -218.6,929.32z"/>
  <path class="fil5" d="M26309.88 19902.23l-4.27 309.09c-1.21,82.37 -68.39,148.48 -150.81,148.48l-2025.24 0c-92.32,0 -141.12,-111.24 -77.13,-177.85 117.54,-122.3 384.13,-282.83 987.45,-398.85l288.8 279.16 981.2 -160.03z"/>
  <path class="fil6" d="M24874.11 10007.29c-329.42,1188.38 82.12,5043.68 82.12,5043.68 0,0 1688.27,761.75 3541.39,0 0,0 20.75,-3667.42 -798.66,-5043.68l-2824.85 0z"/>
  <path class="fil7" d="M26188.99 5204.44c381.01,-28.09 1217.5,82.43 1629.03,412.15 0,0 -586.75,1328.02 -164.85,1801.21 0,0 -225.91,1132.63 10.38,1709.02 236.91,576.41 724.16,2233.59 727.82,2604.15 0,0 -2714.66,1235.28 -4114.35,-205.88 0,0 463.24,-1965.97 586.75,-2274.92 123.6,-308.96 195.63,-1080.74 0,-1410.45 -195.56,-329.11 -319.08,-360.25 -339.66,-668.59 -20.63,-308.96 411.96,-710.73 411.96,-710.73l-154.66 -771.78c0,0 848.29,-442.66 1407.58,-484.18z"/>
  <path class="fil8" d="M26960.16 3302.47c0,0 462.83,39.69 263.16,458.54 -200.27,418.87 -506.16,-113.56 -506.16,-113.56l243 -344.98z"/>
  <path class="fil1" d="M25311.58 1262.51c-519.79,87.93 -1493.24,700.33 -1039.58,2400.21 337.47,1264.51 1178.18,1283.45 1645.89,1204.68 294.91,-49.47 1381.76,-580.06 1183.93,-1754.21 -197.22,-1174.17 -1010.52,-1981.35 -1790.24,-1850.68z"/>
  <path class="fil9" d="M24677.92 3387.33c70.15,-21.36 144.59,17.71 166.26,87.93 21.62,70.21 -17.7,144.71 -87.85,166.69 -70.22,21.37 -144.66,-17.71 -166.28,-87.93 -21.67,-70.21 17.71,-144.71 87.87,-166.69z"/>
  <path class="fil9" d="M26016.81 3162.64c70.22,-21.98 144.1,17.71 166.09,87.32 21.35,70.22 -17.71,144.71 -87.93,166.69 -70.22,21.36 -144.71,-17.7 -166.09,-87.92 -21.98,-70.22 17.71,-144.71 87.93,-166.09z"/>
  <path class="fil10" d="M25433.71 4029.68l-7.95 -1.23 -216.75 -70.82c-14.66,-4.28 -21.98,-19.54 -17.72,-34.2 4.9,-14.04 19.54,-21.98 34.2,-17.1l216.77 70.21c14.03,4.9 21.98,20.17 17.7,34.21 -3.67,11.59 -14.66,18.93 -26.25,18.93z"/>
  <path class="fil10" d="M25263.34 3788.49l-4.27 -0.6c-14.64,-2.46 -25.03,-15.89 -22.59,-30.53 0,-1.84 26.86,-189.28 -63.5,-375.51 -6.72,-13.44 -0.61,-29.31 12.82,-36.04 12.83,-6.71 29.31,-1.21 36.02,12.22 98.31,202.1 69.61,398.7 68.39,407.25 -2.44,13.44 -14.04,23.21 -26.87,23.21z"/>
  <path class="fil9" d="M24455.84 3180.35c-9.15,0 -18.07,-4.88 -23.14,-13.43 -7.8,-12.21 -3.77,-29.31 8.99,-37.25l181.83 -110.51c12.76,-7.95 29.5,-3.67 37.25,9.15 7.81,12.83 3.77,29.31 -8.98,37.25l-181.84 110.51 -14.11 4.28z"/>
  <path class="fil9" d="M26253.72 2797.51l-1.23 0 -287.59 -14.03c-15.26,-0.63 -26.25,-13.43 -25.63,-28.09 0.6,-15.27 13.43,-26.26 28.09,-26.26l287.57 14.04c14.66,1.23 26.26,13.43 25.65,28.69 -0.6,14.66 -12.82,25.65 -26.86,25.65z"/>
  <path class="fil4" d="M25041.7 2086.18c0,0 -607.59,1212.62 -945.31,1295.67 0,0 -580.83,-1903.2 945.31,-2295.19 1526.47,-391.38 2364.19,802.92 2229.26,2069.87l-169.14 -43.34c0,0 -898.17,-1027.01 -2060.12,-1027.01z"/>
  <path class="fil1" d="M26993.74 3042.35c0,0 495.8,-160.58 456.72,275.99 -39.69,436.58 -421.92,217.98 -421.92,217.98l-34.8 -493.97z"/>
  <path class="fil10" d="M27016.34 3105.25l7.93 284.52c0,0 186.84,36.04 192.94,-144.69 6.11,-180.12 -200.87,-139.83 -200.87,-139.83z"/>
  <path class="fil11" d="M25325.63 4378.92l863.36 -329.09c0,0 -156.92,843.83 -863.36,329.09z"/>
  <path class="fil1" d="M25800.67 4535.24l152.64 669.2c0,0 -238.73,92.8 -329.72,154.47 0,0 238.75,730.88 372.47,741.26 133.7,10.37 846.27,-843.83 846.27,-843.83l-434.74 -103.19 -166.7 -760.18 -440.22 142.27z"/>
  <path class="fil12" d="M27818.02 5616.59c0,0 487.26,308.95 775.45,816.34 288.19,508.01 2182.23,4296.14 2182.23,4296.14l-589.82 521.55c0,0 -2436.85,-3672.23 -2532.71,-3832.82 0,0 -610.57,-655.15 164.85,-1801.21z"/>
  <path class="fil13" d="M18038.98 19935.2c0,0 -947.08,340.04 -1080.87,-694.65 -133.84,-1034.7 1173.5,-1106.8 1183.81,-1456.8 10.27,-349.99 -463.24,-689.65 -916.17,-216.14 0,0 -401.48,-154.43 -669.09,72.05 -267.69,226.45 -82.37,607.35 -82.37,607.35 0,0 -380.88,0 -370.56,329.4 10.26,329.41 319.09,463.2 319.09,463.2 0,0 -308.83,226.45 -205.88,525.03 102.95,298.51 380.88,218.46 380.88,218.46 0,0 -226.48,455.75 195.56,576.7 422.03,120.97 1204.39,-154.59 1204.39,-154.59l41.21 -270.01z"/>
  <path class="fil14" d="M20344.79 16666.26c274.52,-1.11 1006.61,-975.59 1368.01,-996.17 361.34,-20.58 402.57,308.84 574.07,308.84 171.57,0 219.64,322.5 0,432.35 -219.57,109.79 -638.18,-116.69 -638.18,-116.69 0,0 -610.78,1235.28 -1255.86,1207.8l-48.04 -836.13z"/>
  <path class="fil15" d="M20344.79 15807.36c-25.53,378.37 697.52,3484.67 25.94,4378.98 -20.56,27.59 -42.42,52.76 -65.51,75.41 -43.6,44.02 -92.2,79.43 -145.75,106.17l-554.22 -2.01 -392.37 -1.28 -1.64 0 -1432.92 -4.88 78.21 -395.29 43.24 -217.43 674.45 -3404.37c0,0 192.33,-1276.5 343.03,-1715.8 110.32,-320.75 865.5,-1338.6 1333.26,-1806.79 159.3,-159.79 285.75,-255.28 341.31,-238 45.75,14.4 116.93,76.57 191.06,173.33 282.09,369.35 607.35,1241.08 -273.41,1871.46l507.69 0c0,0 -644.77,768.71 -672.37,1180.5z"/>
  <path class="fil13" d="M19054.62 14421.08c244.66,157.3 -80.84,2357.22 -631.34,2240.66 -384.3,-81.32 -137.27,-524.98 -137.27,-524.98 0,0 -219.62,384.31 -411.77,315.68 -192.15,-68.64 0,-452.93 0,-452.93 0,0 -192.15,274.52 -384.31,96.09 -192.15,-178.46 988.23,-2045.08 1564.69,-1674.52z"/>
  <path class="fil16" d="M20575.66 14626.98c0,0 349.98,-253.89 699.96,-164.69 349.98,89.21 542.14,576.46 377.4,638.2 -164.67,61.79 -500.92,-432.3 -706.8,-425.47 -205.9,6.84 -370.56,-48.04 -370.56,-48.04z"/>
  <path class="fil17" d="M20782.88 12755.4c-2.44,109.55 -60.07,205.47 -207.1,210.85 -175.44,6.16 -292.35,-55.58 -325.27,-146.18 159.3,-159.79 285.75,-255.28 341.31,-238 45.75,14.4 116.93,76.57 191.06,173.33z"/>
  <path class="fil17" d="M19459.5 14283.88c-70.09,35.97 -97.75,122.01 -61.73,192.15 35.96,70.1 122,97.76 192.15,61.74 70.1,-36.03 97.75,-122 61.74,-192.15 -36.04,-70.1 -122.06,-97.76 -192.16,-61.74z"/>
  <path class="fil13" d="M20370.73 20186.34c-20.56,27.59 -42.42,52.76 -65.51,75.41l-274.57 -1901.11 340.08 1825.7z"/>
  <path class="fil15" d="M20628.29 18370.76l128.27 1595.34c0,0 178.23,-92.68 387.66,-72.11 209.37,20.64 245.22,465.81 245.22,465.81l-982.92 18.02 -370.56 -2079.34 592.33 72.28z"/>
  <path class="fil13" d="M19465.3 18907.48c-75.77,-21.86 -152.39,-35 -228.53,-40.8 -548.07,-43.23 -1060.72,277.16 -1289.63,776.97l-47.37 103.38 -43.24 217.43 147.4 -320.81c212.49,-463.61 688.07,-760.9 1196.2,-720.97 70.82,5.79 142.01,17.7 212.05,37.92 560.76,162.59 435.23,1379.78 0,1398.72 -54.39,2.44 -122.29,4.08 -199.3,5.31l392.37 1.28c349.99,-241.72 399.44,-1302.37 -139.95,-1458.43z"/>
  <path class="fil14" d="M19598.47 20156.54c0,0 221.33,-123.58 344.86,-113.26 123.53,10.31 216.14,324.52 216.14,324.52l-1008.81 -8 447.81 -203.26z"/>
  <path class="fil15" d="M18003.81 19643.46c212.61,-463.29 688,-760.54 1196.2,-720.59 70.82,5.55 141.96,17.58 212.1,37.9 560.83,162.3 435.23,1379.68 0,1398.62 -435.22,18.98 -1736.74,-0.07 -1736.74,-0.07l328.44 -715.86z"/>
  <path class="fil18" d="M17418.97 28695.53c-66.36,-27.25 -6644.55,-2734.27 -8391.06,-4754.69 -129.88,5.5 -1107.6,68.99 -1145.4,710.66l-60.94 -3.55c43.6,-740.2 1207.68,-768.47 1219.41,-768.66l14.35 -0.24 9.4 10.92c1722.39,2010.54 8311.02,4721.91 8377.4,4749.01l-23.16 56.55z"/>
  <path class="fil19" d="M4004.75 13021.58c353.6,13.07 1466.13,496.29 1412.29,2800.39 -53.8,2304.16 356.45,2781.63 -80.66,2943.07 -437.18,161.37 -3900.71,654.06 -3968.01,-456.47 -67.22,-1110.52 94.16,-5381.14 2636.38,-5286.99z"/>
  <path class="fil1" d="M7771.08 23361.65l693.44 -270.56c214.67,238.87 399.14,459.47 486.63,629.27 227.08,440.65 234.59,650.22 61.31,686.55 -173.29,36.33 -184.57,-98.19 -184.57,-98.19 0,0 7.13,177.25 -123.53,210.41 -111.31,28.27 -160.53,-65.02 -173.22,-95.07 9.88,28.33 29.36,114.66 -93.74,131.76 -111.91,15.51 -105.51,-20.51 -250.63,-449.01 -76.94,-227.15 -101.84,-509.43 -415.69,-745.16z"/>
  <path class="fil20" d="M5196.07 17974.03c0,0 2907.17,4112.41 3469.88,5210.42 0,0 -274.52,645.08 -672.56,562.72l-2902.83 -3740.38 105.51 -2032.76z"/>
  <polygon class="fil21" points="5769.94,24730.15 4768.47,28714.76 1645.09,32151.07 904.57,31714.37 3586.5,28215.98 4079.79,24969.74 "/>
  <polygon class="fil5" points="6277.95,32003.91 3956.75,25083.06 2067.61,25040.32 5235.08,32253.89 6277.95,32471.37 "/>
  <path class="fil22" d="M5243.39 32869.53l2608.66 260.54c0,-52.56 -7.39,-105.08 -21.01,-155.51 -182.81,-687.04 -1512.85,-1161.88 -1512.85,-1161.88 -134.45,0 -285.69,309.86 -203.75,513.68l-879.36 -72.47 -6.28 569.36 -1.04 0 15.63 46.28z"/>
  <path class="fil23" d="M5226.23 32973.21c-0.91,86.35 68.87,156.86 155.27,156.86l2470.55 0c0,-52.56 -7.39,-105.08 -21.01,-155.51 0,0 -1305.87,24.18 -1568.48,-80.9 -256.38,-102.95 -1000.14,-71.45 -1033.76,-70.41l-1.04 0 -1.53 149.96z"/>
  <path class="fil22" d="M639.88 32123.53l732.53 800.91c152.08,166.86 367.37,261.45 593,261.45l601.48 0c72.9,0 125.35,-62.1 120.78,-128.17 -0.56,-16.54 -5.68,-33.04 -14.23,-49.03 -66.06,-123.04 -203.94,-304.74 -490.49,-522.91 -381.07,-291.06 144.16,-531.45 -104.23,-779.77 0,0 -443.7,-108.26 -711.99,124.19 -132.13,115.04 -281.98,-395.35 -281.98,-395.35l-348.58 303.03 -77.47 67.22c-94.59,82.07 -103.14,225.56 -18.82,318.43z"/>
  <path class="fil23" d="M639.88 32123.53l732.53 800.91c152.08,166.86 367.37,261.45 593,261.45l601.48 0c72.9,0 125.35,-62.1 120.78,-128.17 0,0 -753.03,17.64 -945.01,-83.77 -192.52,-101.37 -569.61,-506.91 -569.61,-563.87 0,-56.98 26.74,-167.49 -64.36,-259.2 -91.17,-91.16 -372.52,-413 -372.52,-413l-77.47 67.22c-94.59,82.07 -103.14,225.56 -18.82,318.43z"/>
  <path class="fil24" d="M3874.52 17303.8c-596.19,7.25 -1315.02,426.55 -1717.15,1044.15 0,0 802.31,576.46 586.17,1657.32l-675.93 174.98c0,0 -1032.86,2913.16 0,4860.07 0,0 2518.54,513.37 3753.81,-176.33 0,0 92.63,-5023.41 -380.88,-6351.3 0,0 -352.73,-1223.67 -1566.02,-1208.89z"/>
  <path class="fil1" d="M3513.96 16838.46l68.27 744.31c0,0 156.91,251.07 434.91,170.36 278,-80.73 210.72,-269.03 210.72,-269.03l-49.27 -645.64 -664.63 0z"/>
  <path class="fil1" d="M3573.43 13281.2c535.79,-48.72 1655.66,302.79 1649.38,2098.51 -4.64,1335.6 -829.48,1572.69 -1311.72,1616.53 -303.65,27.6 -1514.07,-213.34 -1624.1,-1423.51 -109.96,-1210.18 482.73,-2218.51 1286.44,-2291.53z"/>
  <path class="fil9" d="M4750.77 15213.77c-74.86,-3.19 -138.12,55 -141.23,129.86 -3.17,74.85 55,138.11 129.87,141.3 74.86,3.11 138.1,-55.02 141.29,-129.93 3.11,-74.86 -55.02,-138.12 -129.93,-141.23z"/>
  <path class="fil9" d="M3371.03 15339.18c-74.87,-3.19 -138.11,55 -141.23,129.86 -3.18,74.87 55.01,138.12 129.86,141.3 74.93,3.12 138.12,-55.07 141.31,-129.93 3.11,-74.85 -55.03,-138.12 -129.94,-141.23z"/>
  <path class="fil10" d="M4164.29 16045.2c-9.33,0 -18.36,-4.58 -23.8,-12.94 -8.43,-13.19 -4.65,-30.66 8.48,-39.08l195.63 -125.78c13.19,-8.5 30.59,-4.64 39.09,8.43 8.42,13.19 4.63,30.63 -8.5,39.06l-195.63 125.8 -15.27 4.51z"/>
  <path class="fil10" d="M4270.11 15762.74c-10.92,0 -21.31,-6.41 -25.94,-17.03 -3.36,-7.88 -82.74,-194.96 -38.41,-419.79 3.05,-15.26 17.95,-25.27 33.14,-22.22 15.34,2.99 25.34,17.89 22.3,33.16 -40.8,206.99 34.13,384.6 34.86,386.38 6.17,14.35 -0.42,30.95 -14.77,37.18l-11.18 2.32z"/>
  <path class="fil9" d="M4909.08 14952.87l-8.04 -1.23 -208.29 -62.1c-14.95,-4.4 -23.43,-20.15 -18.98,-35.1 4.46,-14.91 19.97,-23.51 35.17,-18.99l208.21 62.08c14.95,4.4 23.5,20.17 18.99,35.12 -3.6,12.27 -14.84,20.22 -27.06,20.22z"/>
  <path class="fil9" d="M3035.33 15042.12c-12.03,0 -23.14,-7.68 -26.93,-19.71 -4.71,-14.9 3.55,-30.77 18.43,-35.48l280.08 -88.48c14.97,-4.57 30.77,3.55 35.48,18.45 4.71,14.9 -3.55,30.77 -18.43,35.47l-280.15 88.47 -8.48 1.28z"/>
  <path class="fil25" d="M4050.3 16588.91c-277.88,0 -448.78,-244.83 -450.97,-248.12 -17.59,-25.84 -10.87,-60.94 14.9,-78.53 9.76,-6.59 20.82,-9.83 31.74,-9.83 18.02,0 35.72,8.67 46.71,24.66 7.27,10.51 139.77,198.08 356.53,198.08 68.63,0 145.73,-18.8 230,-68.02 8.97,-5.25 18.75,-7.69 28.46,-7.69 19.4,0 38.28,10 48.84,27.95 15.75,27 6.65,61.62 -20.33,77.32 -104.23,60.92 -200.15,84.18 -285.88,84.18z"/>
  <path class="fil19" d="M4175.78 13865.78c0,0 887.29,199.3 1040.36,1265.5l61.5 676.41 99.52 83.46c0,0 221.04,-3019.11 -1743.65,-2840.51 -1964.67,178.6 -1646.07,2891.3 -1646.07,2891.3l333.27 1.28 -20.95 -699.11c0,0 1389.74,-487.79 1876.02,-1378.33z"/>
  <path class="fil1" d="M2341.7 15330.75c0,0 -459.77,-21.79 -380.76,367.52 79.01,389.35 402.07,154.71 402.07,154.71l-21.31 -522.23z"/>
  <path class="fil10" d="M2331.02 15463l21.12 257.42c0,0 -164.67,50.92 -188.37,-111.12 -23.74,-162.05 167.25,-146.3 167.25,-146.3z"/>
  <path class="fil3" d="M1383.64 25293.83c0,0 28.69,1241.93 177.61,1284.42 148.92,42.51 105.51,-527.47 105.51,-527.47 0,0 12.22,604.04 146.72,598.12 134.59,-5.86 74.49,-632.32 74.49,-632.32 0,0 42.39,586.41 201.19,579.45 158.82,-6.96 26.14,-736.42 26.14,-736.42 0,0 388.21,219.93 416.91,128.82 28.69,-91.16 -543.54,-823.85 -543.54,-823.85l-605.03 129.25z"/>
  <path class="fil26" d="M2157.37 18347.95c0,0 -772.64,1180.38 -1005.93,3143.04 -233.37,1962.72 89.2,4011.23 89.2,4011.23 0,0 627.91,19.25 957.33,-337.64 0,0 -130.36,-4490.17 545.57,-5159.31 0,0 529.67,-1355.38 -586.17,-1657.32z"/>
  <path class="fil27" d="M14572.26 31152.26c0,0 -267.62,947.02 -89.21,1262.7 178.41,315.66 219.62,281.36 281.36,253.94 61.79,-27.48 123.52,-150.99 233.36,-102.95 109.78,48 268.17,486.46 268.17,486.46 0,0 -542.69,76.26 -817.21,-60.99 -274.52,-137.27 -699.97,-727.45 -583.29,-1791.16l555.82 -253.88 151 205.88z"/>
  <path class="fil27" d="M17578.1 31302.48c0,0 -102.95,850.96 -350.05,905.86 -247.04,54.88 -480.35,-6.91 -617.6,82.37 -137.27,89.2 -192.15,377.4 -247.05,452.86 -54.89,75.53 -253.94,0 -253.94,0 0,0 -247.04,-192.15 -34.31,-597.02 212.79,-404.88 414.58,-233.31 708.28,-377.42 293.68,-144.15 46.64,-549.02 46.64,-549.02l713.71 -171.57 34.32 253.94z"/>
  <path class="fil28" d="M18675.08 27720.97c0,0 77.97,-547.64 288.86,-609.31 210.83,-61.72 154.79,597.89 154.79,597.89l-443.65 11.42z"/>
  <path class="fil19" d="M18470.22 27637.88c0,0 -514.72,-672.57 -748.03,-624.52 -233.36,47.99 76.45,1223.06 76.45,1223.06l671.58 -598.54z"/>
  <path class="fil28" d="M18298.65 27781.96c0,0 -449.58,-636.89 -555.88,-603.92 -106.31,32.97 164.68,967.65 164.68,967.65l391.2 -363.73z"/>
  <path class="fil28" d="M13045.37 28965.77c0,0 -1091.18,-772.08 -339.74,-2295.56 0,0 -355.73,-51.47 -414.57,298.53 0,0 -316.29,30.7 -213.34,339.59 0,0 -216.16,-71.98 -164.68,391.27 0,0 -304.07,236.79 -7.93,627.93 0,0 -568.58,494.09 800.52,916.17l339.74 -277.93z"/>
  <path class="fil19" d="M12335.07 32239.23c30.9,391.14 391.14,823.5 638.18,813.18 247.1,-10.26 587.2,0 587.2,0 0,0 -113.62,-535.3 -247.46,-607.35 -133.85,-72.05 -349.99,51.47 -349.99,51.47 -175,-205.82 229.76,-947.02 229.76,-947.02 699.97,175 1036.35,-319.09 1036.35,-319.09 1657.37,494.09 3201.41,0 3201.41,0 0,0 195.58,545.57 689.72,1152.9 494.08,607.35 1173.47,648.51 1451.42,669.09 277.93,20.58 411.77,-164.68 411.77,-164.68 0,0 -154.42,-422.04 -308.82,-535.3 -154.42,-113.2 -555.88,205.89 -555.88,205.89 -586.77,-329.4 -998.49,-1811.72 -905.86,-2151.46 92.61,-339.66 772.02,-864.65 916.17,-967.58 144.11,-102.94 1502.9,113.2 1894.04,61.72 174.98,-23.02 331.48,-247.83 450.91,-489.57 147.75,-298.08 238.79,-622.11 238.79,-622.11 -70.82,-84.45 -295.63,-180.8 -596.22,-276.72 -833.39,-265.61 -2252.33,-529.14 -2615.45,-536.53 -494.14,-10.32 -741.17,957.33 -1070.59,1091.18l-1239.37 18.93 -2147.3 32.54c-988.23,123.53 -1419.3,-35.05 -1657.3,1122.02 -39.57,191.04 -33.77,424.53 -8.24,651.8 52.68,466.91 188.55,909.15 188.55,909.15 0,0 -262.68,446.33 -231.79,837.54z"/>
  <path class="fil17" d="M18943.73 28022.16c73.89,26.5 112.29,107.95 85.79,181.84 -26.56,73.89 -107.95,112.29 -181.9,85.8 -73.87,-26.57 -112.28,-107.97 -85.78,-181.84 26.55,-73.94 107.95,-112.35 181.89,-85.8z"/>
  <path class="fil17" d="M21473.99 29011.43c147.75,-298.08 238.79,-622.11 238.79,-622.11 -70.82,-84.45 -295.63,-180.8 -596.22,-276.72 -70.84,199.71 -161.81,655.1 357.43,898.83z"/>
  <path class="fil15" d="M17554.04 28440.79c0,0 585.86,1176.59 1146.13,1377.9 0,0 18.56,302.37 -302,306.82 0,0 -1124.57,-958.93 -1204.56,-1490.08 115.53,-136.57 192.27,-128.33 360.43,-194.64z"/>
  <path class="fil29" d="M12378.31 30492.54c28.38,-4.1 56.78,-9.47 84.81,-16.86 195.99,-49.83 403.53,-168.03 585.9,-80.72 168.41,81.08 229.76,306.76 399.45,385.82 147.4,68.77 327.71,-1.64 443.85,-115.34 116.55,-113.62 188.6,-263.89 278.77,-399.38 89.76,-135.48 211.64,-265.17 371.36,-296.43 263.96,-51.91 504.84,177.86 773.73,192.27 265.97,13.56 510.95,-207.97 562.06,-469.42 27.95,-144.09 7.81,-300.59 74.48,-431.5 61.37,-121.44 188.19,-201.8 240.09,-327.33 33.34,-80.29 28.82,-167.18 -1.66,-247.47l-2147.3 32.54c-988.23,123.53 -1419.3,-35.05 -1657.3,1122.02 -39.57,191.04 -33.77,424.53 -8.24,651.8z"/>
  <ellipse class="fil30" cx="10820.27" cy="34738.74" rx="8423.21" ry="692.82"/>
  <path class="fil3" d="M36164.15 22420.53c-508,937.67 -1958.82,2438.49 -1958.82,2438.49 0,0 -694.72,137.33 -730.86,214.81 -36.21,77.42 336.36,134.33 336.36,134.33 0,0 -515.57,426.85 -420.63,516.24 82.31,77.61 422.22,-234.04 498.31,-307.91 -78.53,78.1 -427.97,424.97 -357.81,490.96 58.19,54.83 364.82,-227.18 475.21,-340.32 -99.64,109.64 -360.18,390.7 -275.98,426.6 118.03,50.38 825.5,-751.27 825.5,-751.27 995.33,-729.65 2466.35,-2287.72 2466.35,-2287.72l-857.63 -534.21z"/>
  <path class="fil31" d="M37132.29 20587.31l-1278.68 2038.01c0,0 409.21,1024.99 944.69,1093.62l691.19 -1059.13c0,0 438.99,-1235.26 -357.2,-2072.5z"/>
  <polygon class="fil1" points="41151.77,34721.67 41151.77,35135.95 40481.35,35135.95 40441.05,34583.8 "/>
  <polygon class="fil1" points="38083.58,34691.69 38001.77,35135.95 37383.86,35135.95 37343.55,34583.8 "/>
  <polygon class="fil32" points="38140.37,27688.1 39276.67,28200.75 40293.28,34842.93 41193.29,34842.93 40924.01,27071.54 38165.39,26406.8 "/>
  <path class="fil32" d="M37197.62 26487.58c0,141.4 64.72,8270.66 64.72,8270.66l831.62 169.38 942.75 -8440.04 -1839.09 0z"/>
  <path class="fil33" d="M38915.81 35680.96l0 7.15 2100.4 0c97.71,0 177.08,-79.2 177.08,-176.84l0 -500.32c0,0 -368.8,0 -560.52,0 -191.72,0 -29.92,-357.66 -268.04,-421.53 -238.14,-63.87 -383.46,440.95 -383.46,440.95l-727.81 204.98c-141.65,39.81 -252.16,143.07 -304.07,273.92 -21.98,53.6 -33.58,111.35 -33.58,171.69z"/>
  <path class="fil34" d="M38915.81 35680.96l0 7.15 2100.4 0c97.71,0 177.08,-79.2 177.08,-176.84l0 -2 -2243.9 0c-21.98,53.6 -33.58,111.35 -33.58,171.69z"/>
  <polygon class="fil34" points="39990.44,35255.01 39856.72,35037.83 39901.9,35009.67 40036.22,35226.87 "/>
  <polygon class="fil34" points="39810.93,35297.94 39704.69,35093.51 39752.3,35068.97 39858.56,35273.39 "/>
  <path class="fil33" d="M35753.95 35680.96l0 7.15 2100.06 0c97.68,0 177.06,-79.2 177.06,-176.84l0 -500.32c0,0 -368.18,0 -559.91,0 -191.72,0 -30.52,-357.66 -268.66,-421.53 -238.12,-63.87 -382.83,440.95 -382.83,440.95l-727.93 204.98c-142.03,39.81 -252.42,143.07 -304.57,273.92 -21.43,53.6 -33.22,111.35 -33.22,171.69z"/>
  <path class="fil34" d="M35753.95 35680.96l0 7.15 2100.06 0c97.68,0 177.06,-79.2 177.06,-176.84l0 -2 -2243.9 0c-21.43,53.6 -33.22,111.35 -33.22,171.69z"/>
  <polygon class="fil34" points="36828.83,35255.01 36694.5,35037.83 36740.3,35009.67 36874.02,35226.87 "/>
  <polygon class="fil34" points="36648.7,35297.94 36543.07,35093.51 36590.7,35068.97 36696.33,35273.39 "/>
  <path class="fil35" d="M40536.3 20930.41c-535.49,-1194.07 -1721.84,-1282.17 -1721.84,-1282.17l-950.69 293.99c-370.01,180.13 -731.48,645.08 -731.48,645.08l-27.47 1894.04c150.8,1276.48 -219.21,4886.19 -219.21,4886.19 906.11,1221.54 4199.61,123.53 4199.61,123.53 0,0 -13.45,-5366.55 -548.92,-6560.66z"/>
  <path class="fil1" d="M36071.88 17826.69c0,0 -489.93,76.43 -347.83,383.56 142.08,307.06 475.69,68.38 475.69,68.38l-127.86 -451.94z"/>
  <path class="fil10" d="M36110.79 17964.25l58.68 207.47c0,0 -179.28,65.51 -228.07,-63.62 -48.77,-129.14 169.39,-143.85 169.39,-143.85z"/>
  <path class="fil1" d="M36999.19 15826.95c-768.73,87.63 -1166.23,184.76 -1144.8,1070.79 21.5,886.08 466.43,2729.68 1124.03,2701.41 657.6,-28.33 1613.16,-55.02 1867.78,-1188.68 217.98,-969.8 -396.26,-2232 -757.74,-2435.33 -361.46,-203.32 -1089.27,-148.19 -1089.27,-148.19z"/>
  <path class="fil1" d="M38779.65 17381.81c0,0 474.43,-144.96 480.52,193.38 6.11,338.26 -398.1,269.01 -398.1,269.01l-82.42 -462.39z"/>
  <path class="fil10" d="M38804.68 17522.48l37.85 212.37c0,0 189.9,-19.3 177.68,-156.79 -12.82,-137.44 -215.53,-55.58 -215.53,-55.58z"/>
  <path class="fil18" d="M37883.92 16452.37c0,0 -959.22,1099.49 -1493.49,1222.09 -533.77,122.67 -617.85,58.68 -740.7,-204.49 0,0 -388.51,241.79 -533.66,-57.88 -145.07,-299.66 155.58,-410.37 155.58,-410.37 0,0 -234.16,-22.53 -291.6,-272.99 -89.28,-388.83 1265.07,-1125.31 2601.64,-1117.68 1336.56,7.63 1461.11,1530.63 1240.69,1759.96 0,0 -604.47,-168.41 -938.46,-918.64z"/>
  <path class="fil9" d="M36359.3 17798.48c-75.72,5.86 -132.51,71.98 -126.4,147.75 6.11,75.78 72.05,132.44 147.76,126.58 75.72,-5.87 132.51,-71.99 126.4,-147.76 -5.51,-75.72 -72.06,-132.37 -147.76,-126.57z"/>
  <path class="fil9" d="M37853.38 17480.79c-75.7,5.85 -132.49,71.98 -126.98,147.76 6.09,75.77 72.03,132.44 147.75,126.57 76.31,-5.87 132.5,-71.98 127.01,-147.76 -6.11,-75.72 -72.05,-132.37 -147.78,-126.57z"/>
  <path class="fil10" d="M37207.39 18423.71l-321.78 -77.18c0,0 48.85,306.09 321.78,77.18z"/>
  <path class="fil10" d="M37372.87 19028.18c-16.5,0 -29.93,-12.82 -30.54,-29.18 -0.6,-16.85 12.21,-31.13 29.31,-31.86 2.44,-0.14 282.08,-14.54 423.75,-188.8 71.43,-88.54 96.47,-204.92 72.65,-345.72 -2.44,-16.6 8.55,-32.35 25.03,-35.1 17.1,-3.06 32.37,8.43 35.41,25.15 26.26,158.94 -2.44,291.62 -86.09,394.44 -158.74,195.57 -455.49,210.47 -468.31,211.02l-1.21 0.05z"/>
  <path class="fil1" d="M37805.15 19324.56l196.01 521.56 -137.39 96.11c0,0 23.21,452.93 338.87,988.18 0,0 337.66,-1117.14 611.82,-1282.17l-364.52 46.96 -233.24 -507.89 -411.55 137.25z"/>
  <path class="fil3" d="M40385.48 23181.39l-892.07 -219.64c0,0 -1151.54,2196.53 -2747.63,2563.18 -59.22,-6.23 -788.2,-80.78 -850.11,-12.76 -64.54,70.95 378.14,222.74 378.14,222.74 0,0 -757.01,318.97 -685.08,446.33 62.47,110.58 570.28,-131.4 676.53,-185.19 -110.26,57.46 -640.01,333.99 -586.89,428.08 44.08,78.11 514.96,-129.26 671.15,-213.76 -143.55,84.33 -497.14,265.3 -418.85,331.85 109.71,93.3 1121.64,-437.48 1122.24,-437.6 307.13,-139.95 2817.24,-1326.08 3332.57,-2923.23z"/>
  <path class="fil36" d="M40022.79 20206.68c0,0 -639.28,147.27 -625.83,1094.34 14.03,947.02 -288.22,1825.47 -288.22,1825.47 0,0 576.41,686.24 1400.07,384.3 0,0 406.05,-1000.62 161.82,-2154.19 -244.24,-1153.59 -647.84,-1149.92 -647.84,-1149.92z"/>
  <path class="fil37" d="M30774.21 25996c0,0 -125.29,1254.87 55.75,2140.15l2785.36 0c0,0 -98.84,-1695.77 -1068.52,-2633.88l-1772.59 493.73z"/>
  <path class="fil17" d="M32349.16 24780.33l-390.78 -271.36 -0.79 -0.79 -125.17 -86.89c0,0 408.84,-413 553,-351.19 23.02,9.83 37.85,34.54 46.11,69.18 45.3,182.8 -82.37,641.05 -82.37,641.05z"/>
  <path class="fil17" d="M30465.39 24780.33l390.76 -271.36 0.79 -0.79 125.18 -86.89c0,0 -408.85,-413 -552.94,-351.19 -23.09,9.83 -37.92,34.54 -46.16,69.18 -45.24,182.8 82.37,641.05 82.37,641.05z"/>
  <path class="fil38" d="M32349.16 24780.33l-390.78 -271.36 -0.79 -0.79c0,0 308.84,-418.73 473.51,-369.34l0.43 0.44c45.3,182.8 -82.37,641.05 -82.37,641.05z"/>
  <path class="fil38" d="M30465.39 24780.33l390.76 -271.36 0.79 -0.79c0,0 -308.77,-418.73 -473.5,-369.34l-0.42 0.44c-45.24,182.8 82.37,641.05 82.37,641.05z"/>
  <path class="fil17" d="M32848.18 25274.47c0,0 -11.47,48.96 -41.93,125.17 -17.71,44.88 -42.01,99.22 -74.13,158.5 -29.69,55.2 -65.89,114.49 -110.39,175 -202.97,277.14 -571.51,576.03 -1214.64,570.71 -1194.12,10.25 -1441.17,-1029.38 -1441.17,-1029.38 231.84,-175 638.24,-936.76 1441.17,-936.76 545.98,0 908.74,352.06 1157.85,632.45 40.36,45.73 78.21,89.74 112.83,129.69 41.95,48.16 79.88,90.6 114.06,124.79 19.73,19.73 38.65,36.64 56.35,49.83z"/>
  <path class="fil33" d="M31832.42 25268.6c-25.1,0 -48.67,-15.63 -57.52,-40.61 -11.3,-31.74 5.25,-66.73 37.06,-77.97l304.38 -108.12c31.93,-11.18 66.74,5.37 78.04,37.13 11.23,31.74 -5.32,66.72 -37.13,77.97l-304.37 108.12c-6.79,2.39 -13.68,3.48 -20.46,3.48z"/>
  <path class="fil33" d="M30982.12 25268.6c-6.77,0 -13.61,-1.09 -20.46,-3.48l-304.36 -108.12c-31.81,-11.25 -48.36,-46.23 -37.13,-77.97 11.29,-31.82 46.09,-48.36 78.03,-37.13l304.37 108.12c31.82,11.24 48.36,46.23 37.13,77.97 -8.91,24.98 -32.49,40.61 -57.58,40.61z"/>
  <path class="fil33" d="M31407.27 25401.83c54.59,3.6 114.54,20.15 175,59.53l-143.56 130.6c-15.87,14.35 -47,14.35 -62.82,0l-143.61 -130.6c60.51,-39.38 120.4,-55.93 174.99,-59.53z"/>
  <path class="fil33" d="M31641.49 25930.11l-15.5 -4.21 -218.72 -129.2 -218.58 129.2c-14.47,8.48 -33.29,3.65 -41.89,-10.75 -8.55,-14.54 -3.72,-33.28 10.75,-41.83l249.72 -147.57 249.73 147.57c14.52,8.55 19.35,27.29 10.8,41.76 -5.73,9.66 -15.87,15.03 -26.31,15.03z"/>
  <path class="fil33" d="M31407.27 25791.75c-16.84,0 -30.53,-13.68 -30.53,-30.53l0 -227.01c0,-16.91 13.69,-30.54 30.53,-30.54 16.85,0 30.53,13.63 30.53,30.54l0 227.01c0,16.85 -13.68,30.53 -30.53,30.53z"/>
  <path class="fil37" d="M32848.18 25274.47c0,0 -11.47,48.96 -41.93,125.17 -125.61,-30.05 -287.47,-140.87 -287.47,-140.87 59.35,3.3 188.17,-18.5 273.05,-34.13 19.73,19.73 38.65,36.64 56.35,49.83z"/>
  <path class="fil37" d="M32732.12 25558.14c-29.69,55.2 -65.89,114.49 -110.39,175 -49.83,-59.29 -115.29,-167.17 -180.32,-360.68 0,0 139.16,118.58 290.71,185.68z"/>
  <path class="fil37" d="M32677.77 25099.85c-138,25.58 -261.87,-0.38 -261.87,-0.38 44.02,-13.61 100.44,-70.83 149.04,-129.31 40.36,45.73 78.21,89.74 112.83,129.69z"/>
  <path class="fil37" d="M29965.92 25274.47c0,0 11.54,48.96 42.02,125.17 125.59,-30.05 287.4,-140.87 287.4,-140.87 -59.3,3.3 -188.19,-18.5 -273,-34.13 -19.78,19.73 -38.7,36.64 -56.42,49.83z"/>
  <path class="fil37" d="M30082.05 25558.14c29.62,55.2 65.89,114.49 110.34,175 49.83,-59.29 115.27,-167.17 180.37,-360.68 0,0 -139.21,118.58 -290.71,185.68z"/>
  <path class="fil37" d="M30136.4 25099.85c137.93,25.58 261.89,-0.38 261.89,-0.38 -44.09,-13.61 -100.51,-70.83 -149.06,-129.31 -40.35,45.73 -78.27,89.74 -112.83,129.69z"/>
  <polygon class="fil39" points="30450.36,32830.14 34643.24,32830.14 34643.24,32294.83 30450.36,32294.83 "/>
  <path class="fil39" d="M35030.97 35688.04l0 0c-190.94,2.87 -375.46,-178.72 -412.15,-405.56l-752.97 -4651.67 691.3 -10.44 752.98 4651.67c36.69,226.89 -88.29,413.13 -279.16,416z"/>
  <path class="fil39" d="M30062.63 35688.04l0 0c190.94,2.87 375.46,-178.72 412.16,-405.56l752.98 -4651.67 -691.32 -10.44 -752.91 4651.67c-36.76,226.89 88.24,413.13 279.09,416z"/>
  <path class="fil15" d="M34611.74 30707.62l-4129.87 0c-272.93,0 -494.15,-221.21 -494.15,-494.09 0,-272.92 221.22,-494.14 494.15,-494.14l4129.87 0c272.93,0 494.14,221.22 494.14,494.14 0,272.88 -221.21,494.09 -494.14,494.09z"/>
  <path class="fil0" d="M31837.13 24009.15c-48.43,-25.4 -101.86,-31.37 -151.5,-20.7 16.49,-85.91 -23.02,-175.91 -104.47,-218.65 -99.57,-52.27 -222.74,-13.91 -275.01,85.73 -16.66,31.81 -23.19,65.99 -22.34,99.59 -76.02,-12.95 -154.91,22.59 -192.64,94.57 -17.58,33.53 -23.74,70.04 -19.9,105.02 -66.19,-0.36 -130.36,34.5 -163.27,97.21 -46.95,89.51 -12.46,200.21 77.11,247.22 78.16,41.04 172.49,19.85 226.4,-45.8 23.27,37.63 56.31,69.86 98.31,91.91 124.93,65.51 279.21,17.39 344.74,-107.47l7.51 -16.25c102.69,34.13 217.79,-9.83 269.75,-108.74 57.7,-110.03 15.33,-245.93 -94.69,-303.64z"/>
  <path class="fil0" d="M30615.15 23545.11c-37.9,32.23 -42.49,89.09 -10.24,126.99 32.29,37.92 89.13,42.51 127.05,10.21 37.93,-32.24 42.5,-89.15 10.2,-127 -32.25,-37.92 -89.14,-42.49 -127.01,-10.2z"/>
  <path class="fil0" d="M30771.53 23011.77c-37.92,32.3 -42.49,89.14 -10.19,127.06 32.24,37.92 89.08,42.49 127,10.19 37.91,-32.24 42.49,-89.15 10.2,-127 -32.25,-37.93 -89.09,-42.49 -127.01,-10.25z"/>
  <path class="fil0" d="M31420.77 23086.99c-71.62,-23.02 -148.31,16.36 -171.33,87.98 -23.02,71.62 16.35,148.38 87.97,171.4 71.64,23.02 148.38,-16.38 171.4,-88 23.02,-71.62 -16.42,-148.36 -88.04,-171.38z"/>
  <path class="fil0" d="M31984.64 23613.67c-64.47,52.22 -74.37,146.79 -22.17,211.21 52.22,64.42 146.74,74.37 211.14,22.17 64.49,-52.22 74.37,-146.74 22.17,-211.21 -52.2,-64.42 -146.72,-74.3 -211.14,-22.17z"/>
  <path class="fil0" d="M34929.49 26896.98c-205.58,0 -385.22,109.16 -485.48,272.37 -81.7,-119.66 -219.14,-198.26 -374.96,-198.26 -250.59,0 -453.73,203.14 -453.73,453.73l0.24 5.74c-68.67,-43.35 -149.76,-68.87 -237.01,-68.87 -98.86,0 -189.83,32.6 -263.65,87.06 -96.18,-194.76 -296.21,-329.11 -528.17,-329.11 -105.27,0 -203.87,27.97 -289.4,76.33 -56.12,-132.2 -187.09,-224.88 -339.74,-224.88 -190.2,0 -346.7,143.98 -366.65,328.87 -48.31,-23.21 -102.15,-36.52 -159.3,-36.52 -20.27,0 -40.05,2.07 -59.47,5.19 -81.52,-227.74 -298.58,-391.02 -554.36,-391.02 -227.32,0 -424.23,128.96 -522.54,317.51 -48.84,-18.45 -101.6,-29 -156.86,-29 -245.81,0 -445.06,199.23 -445.06,445.05 0,245.76 199.25,445.06 445.06,445.06 121.88,0 232.27,-49.16 312.63,-128.53 100.68,80.24 227.98,128.53 366.77,128.53 144.64,0 276.96,-52.4 379.55,-138.92 63.74,52.46 145.31,83.96 234.28,83.96 190.19,0 346.69,-143.98 366.72,-328.86 48.23,23.21 102.08,36.52 159.23,36.52 13.5,0 26.86,-0.8 40,-2.2l-0.12 2.2c0,325.51 263.82,589.28 589.26,589.28 179.88,0 340.71,-80.85 448.78,-207.92 81.64,98.62 204.97,161.5 343.04,161.5 245.75,0 444.99,-199.29 444.99,-445.06l0 -0.72c70.82,45.72 154.95,72.6 245.51,72.6 139.95,0 264.93,-63.45 348.16,-162.97 92.45,189.96 286.8,321.24 512.28,321.24 314.75,0 569.92,-255.17 569.92,-569.99 0,-314.76 -255.17,-569.91 -569.92,-569.91z"/>
  <path class="fil40" d="M33757.11 29719.39l-2420.6 0c-1056.32,0 -1912.66,-856.34 -1912.66,-1912.66l6245.9 0c0,1056.32 -856.34,1912.66 -1912.64,1912.66z"/>
  <path class="fil41" d="M30487.78 27806.73l-542.06 0c0,1056.32 856.34,1912.66 1912.64,1912.66l542.09 0c-1056.32,0 -1912.67,-856.34 -1912.67,-1912.66z"/>
  <path class="fil42" d="M35748.23 27806.73l-6402.84 0c-53.98,0 -97.75,-43.77 -97.75,-97.8 0,-53.99 43.77,-97.76 97.75,-97.76l6402.84 0c53.96,0 97.75,43.77 97.75,97.76 0,54.03 -43.79,97.8 -97.75,97.8z"/>
  <ellipse class="fil30" cx="35845.98" cy="36816.32" rx="5615.4" ry="461.87"/>
  <ellipse class="fil30" cx="22979.12" cy="21953.55" rx="5412.25" ry="445.16"/>
 </g>
</svg>
