<?xml version="1.0" encoding="UTF-8"?>
<!DOCTYPE svg PUBLIC "-//W3C//DTD SVG 1.1//EN" "http://www.w3.org/Graphics/SVG/1.1/DTD/svg11.dtd">
<!-- Creator: CorelDRAW 2019 (64 Bit) -->
<svg xmlns="http://www.w3.org/2000/svg" xml:space="preserve" width="12cm" height="10cm" version="1.1" style="shape-rendering:geometricPrecision; text-rendering:geometricPrecision; image-rendering:optimizeQuality; fill-rule:evenodd; clip-rule:evenodd"
viewBox="0 0 12000 10000"
 xmlns:xlink="http://www.w3.org/1999/xlink"
 xmlns:xodm="http://www.corel.com/coreldraw/odm/2003">
 <defs>
  <style type="text/css">
   <![CDATA[
    .fil0 {fill:#FEFEFE;fill-rule:nonzero}
   ]]>
  </style>
 </defs>
 <g id="Camada_x0020_1">
  <metadata id="CorelCorpID_0Corel-Layer"/>
  <path class="fil0" d="M8967.93 3.83c-1036.03,-0.17 -1950.34,520.54 -2497.8,1311.4 0,0 -184.68,276.93 -477.01,276.93 -292.4,0 -476.98,-276.93 -476.98,-276.93 -547.46,-790.86 -1461.6,-1311.4 -2498.03,-1311.4 -1674.42,-0.17 -3031.09,1356.21 -3031.02,3032.22 -0.07,394.99 77.86,771.72 215.24,1117.9 357.17,1109.2 1236.03,2300.35 2219.84,3316.49 150.32,-392.46 230.65,-816.12 -16.29,-993.32 -514,-369.5 -347.46,-1136.99 -246.15,-1448.21 101.44,-311.32 7.17,-521.42 7.17,-521.42 -318.56,999.18 -738.57,890.58 -738.57,890.58 0,0 7.36,-753.06 -151.95,-1035.46 -159.35,-282.3 -376.49,-557.53 -231.62,-890.42 144.69,-333.24 767.38,-166.7 970.12,-304.23 202.82,-137.71 420.11,-36.34 420.11,-36.34 246.05,-209.8 1173.03,-115.86 1173.03,-115.86 0,0 926.93,-93.94 1172.98,115.86 0,0 217.24,-101.37 420.04,36.34 202.74,137.53 825.5,-29.01 970.28,304.23 144.78,332.89 -72.44,608.12 -231.71,890.42 -159.38,282.4 -152.02,1035.46 -152.02,1035.46 0,0 -420.01,108.6 -738.67,-890.58 0,0 -94.21,210.1 7.27,521.42 101.31,311.22 267.85,1078.88 -246.22,1448.21 -366.92,263.48 338.23,2277.43 772.18,3409.12 159.18,65.91 298.05,106.56 410.9,117.56 59.51,-5.86 126.65,-20.46 199.98,-41.79 1468.18,-2146.36 1083.07,-3296.86 1083.07,-3296.86 0,0 -169.09,-284.26 -537.83,-235.78l54.34 -72.6 -199.43 -12.06 139.01 -169.29 -139.08 0 114.91 -138.91 -296.14 -54.44 120.85 -90.6 -96.7 -96.63c0,0 253.83,-72.58 235.71,-368.84 -13.08,-214.92 -10.36,-455.11 68.18,-667.9 29.87,-80.58 -80.38,-1181.48 -1.75,-1302.54 88.78,-136.38 876.42,622.62 876.42,622.62 0,0 163.35,-175.34 804.08,-175.34 640.59,0 803.77,175.34 803.77,175.34 0,0 787.78,-759 876.47,-622.62 78.49,121.06 -31.67,1221.96 -1.85,1302.54 78.76,212.79 81.45,452.98 68.37,668.07 -18.25,296.09 235.69,368.67 235.69,368.67l-96.75 96.63 120.92 90.6 -296.11 54.44 114.84 138.91 -139.13 0.15 139.13 169.23 -199.51 11.97 54.4 72.6c-368.79,-48.48 -537.98,235.78 -537.98,235.78 0,0 -73.69,310.76 21.38,786.16 976.27,-1012.17 1846.54,-2195.18 2201.4,-3297.36 138.54,-346.18 215.47,-722.91 215.47,-1117.9 0,-1676.08 -1356.6,-3032.39 -3031.25,-3032.22z"/>
 </g>
</svg>
