<?xml version="1.0" encoding="UTF-8"?>
<!DOCTYPE svg PUBLIC "-//W3C//DTD SVG 1.1//EN" "http://www.w3.org/Graphics/SVG/1.1/DTD/svg11.dtd">
<!-- Creator: CorelDRAW 2019 (64 Bit) -->
<svg xmlns="http://www.w3.org/2000/svg" xml:space="preserve" width="10cm" height="10cm" version="1.1" style="shape-rendering:geometricPrecision; text-rendering:geometricPrecision; image-rendering:optimizeQuality; fill-rule:evenodd; clip-rule:evenodd"
viewBox="0 0 10000 10000"
 xmlns:xlink="http://www.w3.org/1999/xlink"
 xmlns:xodm="http://www.corel.com/coreldraw/odm/2003">
 <defs>
  <style type="text/css">
   <![CDATA[
    .str0 {stroke:#373435;stroke-width:20;stroke-miterlimit:22.9256}
    .fil0 {fill:#FEFEFE}
    .fil1 {fill:#28AAE2;fill-rule:nonzero}
   ]]>
  </style>
 </defs>
 <g id="Camada_x0020_1">
  <metadata id="CorelCorpID_0Corel-Layer"/>
  <polygon class="fil0 str0" points="2180.54,2718.45 7837.11,2718.45 7837.11,6859.86 6498.73,8328.87 3569.43,8328.87 2180.54,7238.65 "/>
  <path class="fil1" d="M7472.81 1218.37c-862.5,0 -1623.72,433.49 -2079.54,1091.98 0,0 -153.71,230.46 -397.05,230.46 -243.38,0 -397.14,-230.43 -397.14,-230.43 -455.7,-658.52 -1216.74,-1091.97 -2079.54,-1092.01 -1393.88,0.04 -2523.38,1129.14 -2523.33,2524.5 0,328.68 64.83,642.42 179.22,930.72 706.73,2194.87 3868.42,4775.89 4820.71,4869.87 952.16,-93.88 4114.17,-2675.05 4820.65,-4869.89 115.29,-288.24 179.4,-602.02 179.4,-930.7 0.07,-1395.33 -1129.38,-2524.46 -2523.38,-2524.5zm-2360.03 2659.37l0 0c84.6,-411.98 439.97,-686.64 792.92,-613.84 353.62,72.89 571.24,465.47 486.49,877.24 -84.67,411.75 -440.11,686.44 -793.3,613.62 -353.36,-72.62 -570.96,-465.45 -486.11,-877.02zm-1026.14 -613.8l0 0c353,-72.84 708.39,201.82 792.94,613.8 84.97,411.57 -132.65,804.38 -486.02,877.02 -353.3,72.78 -708.62,-201.87 -793.23,-613.66 -84.85,-411.72 132.76,-804.28 486.31,-877.16zm-1626.1 2104.4l0 0c-169.47,-384.9 -39.09,-814.43 291.1,-960 330.05,-145.02 735.21,48.89 904.45,433.64 169.22,384.81 38.89,814.44 -291.33,959.88 -330.07,145.26 -734.75,-48.82 -904.22,-433.52zm3664.24 2582.92l0 0c-406.7,0.13 -745.63,-277.51 -846.31,-652.43 -38.24,-43.34 -120.4,-103.43 -282.33,-103.5 -161.79,0.07 -244.03,60.16 -282.14,103.5 -100.68,374.92 -439.74,652.56 -846.32,652.56 -486.12,0 -880.04,-394.1 -880.04,-879.82 0,-401.95 271.19,-737.35 638.98,-842.45 169.91,-105.29 400.72,-293.77 516.39,-588.5 195.65,-497.87 568.67,-586.66 853.21,-586.66 284.54,0.04 657.46,88.79 853.04,586.65 115.84,294.74 346.68,483.2 516.22,588.53 368.14,105.1 639.28,440.55 639.23,842.43 0.05,485.72 -393.68,879.69 -879.93,879.69zm1407.08 -2582.94l0 0c-169.42,384.68 -574.15,578.8 -904.2,433.5 -330.07,-145.4 -460.58,-575.07 -291.35,-959.84 169.11,-384.7 574.34,-578.69 904.46,-433.61 330.17,145.54 460.56,575.07 291.09,959.95z"/>
 </g>
</svg>
