<?xml version="1.0" encoding="UTF-8"?>
<!DOCTYPE svg PUBLIC "-//W3C//DTD SVG 1.1//EN" "http://www.w3.org/Graphics/SVG/1.1/DTD/svg11.dtd">
<!-- Creator: CorelDRAW 2019 (64 Bit) -->
<svg xmlns="http://www.w3.org/2000/svg" xml:space="preserve" width="7.5cm" height="6cm" version="1.1" style="shape-rendering:geometricPrecision; text-rendering:geometricPrecision; image-rendering:optimizeQuality; fill-rule:evenodd; clip-rule:evenodd"
viewBox="0 0 7500 6000"
 xmlns:xlink="http://www.w3.org/1999/xlink"
 xmlns:xodm="http://www.corel.com/coreldraw/odm/2003">
 <defs>
  <style type="text/css">
   <![CDATA[
    .fil0 {fill:#28AAE2;fill-rule:nonzero}
    .fil1 {fill:#28AAE2;fill-rule:nonzero;fill-opacity:0.501961}
   ]]>
  </style>
 </defs>
 <g id="Camada_x0020_1">
  <metadata id="CorelCorpID_0Corel-Layer"/>
  <g id="_647453053632">
   <path class="fil0" d="M5482.82 91.97c-603.74,-0.1 -1136.55,303.34 -1455.58,764.21 0,0 -107.62,161.38 -277.97,161.38 -170.4,0 -277.96,-161.38 -277.96,-161.38 -319.03,-460.87 -851.74,-764.21 -1455.72,-764.21 -975.76,-0.1 -1766.35,790.33 -1766.31,1767.01 -0.04,230.18 45.37,449.72 125.43,651.45 208.14,646.38 720.29,1340.52 1293.6,1932.67 87.6,-228.71 134.41,-475.59 -9.5,-578.85 -299.52,-215.33 -202.47,-662.58 -143.43,-843.94 59.11,-181.42 4.17,-303.86 4.17,-303.86 -185.63,582.27 -430.39,518.99 -430.39,518.99 0,0 4.28,-438.85 -88.55,-603.41 -92.86,-164.51 -219.4,-324.9 -134.98,-518.89 84.32,-194.2 447.19,-97.15 565.33,-177.29 118.19,-80.25 244.82,-21.18 244.82,-21.18 143.38,-122.26 683.58,-67.51 683.58,-67.51 0,0 540.16,-54.75 683.55,67.51 0,0 126.59,-59.07 244.77,21.18 118.15,80.14 481.06,-16.91 565.43,177.29 84.37,193.99 -42.21,354.38 -135.03,518.89 -92.88,164.56 -88.59,603.41 -88.59,603.41 0,0 -244.76,63.28 -430.45,-518.99 0,0 -54.91,122.44 4.23,303.86 59.04,181.36 156.09,628.71 -143.48,843.94 -213.82,153.54 197.1,1327.16 449.98,1986.64 92.76,38.41 173.69,62.1 239.45,68.51 34.68,-3.42 73.8,-11.92 116.54,-24.35 855.57,-1250.78 631.15,-1921.23 631.15,-1921.23 0,0 -98.53,-165.65 -313.42,-137.4l31.67 -42.31 -116.22 -7.03 81.01 -98.64 -81.05 0 66.97 -80.96 -172.57 -31.72 70.42 -52.8 -56.35 -56.31c0,0 147.91,-42.3 137.36,-214.94 -7.62,-125.24 -6.04,-265.21 39.73,-389.22 17.41,-46.95 -46.84,-688.49 -1.02,-759.04 51.74,-79.48 510.73,362.83 510.73,362.83 0,0 95.19,-102.18 468.57,-102.18 373.3,0 468.39,102.18 468.39,102.18 0,0 459.08,-442.31 510.76,-362.83 45.74,70.55 -18.45,712.09 -1.07,759.04 45.89,124.01 47.46,263.98 39.84,389.32 -10.64,172.54 137.35,214.84 137.35,214.84l-56.38 56.31 70.46 52.8 -172.56 31.72 66.92 80.96 -81.07 0.08 81.07 98.62 -116.26 6.97 31.7 42.31c-214.91,-28.25 -313.5,137.4 -313.5,137.4 0,0 -42.94,181.09 12.46,458.13 568.91,-589.84 1076.06,-1279.23 1282.85,-1921.52 80.73,-201.73 125.56,-421.27 125.56,-651.45 0,-976.72 -790.54,-1767.11 -1766.44,-1767.01z"/>
   <path class="fil1" d="M4496.91 3973.82c0,0 -98.53,-165.65 -313.42,-137.4l31.67 -42.31 -116.22 -7.03 81.01 -98.64 -81.05 0 66.97 -80.96 -172.57 -31.72 70.42 -52.8 -56.35 -56.31c0,0 147.91,-42.3 137.36,-214.94 -7.62,-125.24 -6.04,-265.21 39.73,-389.22 10.78,-29.01 -9.66,-285.49 -16.03,-493.64l-517.99 518.09c-22.52,171.4 -20.95,348.5 -20.95,348.5 0,0 -99.74,25.49 -220.26,-107.35l-149.97 150.03c22.94,201.07 -1.65,443.97 -199.47,586.13 -213.82,153.54 197.1,1327.16 449.98,1986.64 92.76,38.41 173.69,62.1 239.45,68.51 34.68,-3.42 73.8,-11.92 116.54,-24.35 855.57,-1250.78 631.15,-1921.23 631.15,-1921.23z"/>
   <path class="fil1" d="M7123.7 2510.43c80.73,-201.73 125.56,-421.27 125.56,-651.45 0,-695.99 -401.64,-1297.16 -985.59,-1585.26l-1903.83 1903.85c148.5,109.67 334.33,288.71 334.33,288.71 0,0 95.19,-102.18 468.57,-102.18 373.3,0 468.39,102.18 468.39,102.18 0,0 459.08,-442.31 510.76,-362.83 45.74,70.55 -18.45,712.09 -1.07,759.04 45.89,124.01 47.46,263.98 39.84,389.32 -10.64,172.54 137.35,214.84 137.35,214.84l-56.38 56.31 70.46 52.8 -172.56 31.72 66.92 80.96 -81.07 0.08 81.07 98.62 -116.26 6.97 31.7 42.31c-214.91,-28.25 -313.5,137.4 -313.5,137.4 0,0 -42.94,181.09 12.46,458.13 568.91,-589.84 1076.06,-1279.23 1282.85,-1921.52z"/>
  </g>
 </g>
</svg>
